<svg xmlns="http://www.w3.org/2000/svg" viewBox="0 0 360 540" font-family="Georgia,serif"><defs><linearGradient id="bg" x1="0" y1="0" x2="0" y2="1"><stop offset="0" stop-color="#241338"/><stop offset="1" stop-color="#140A22"/></linearGradient><radialGradient id="halo" cx="50%" cy="34%" r="55%"><stop offset="0" stop-color="#D9BE7A" stop-opacity="0.6"/><stop offset="1" stop-color="#D9BE7A" stop-opacity="0"/></radialGradient></defs><rect x="10" y="10" width="340" height="520" rx="22" fill="url(#bg)" stroke="#C9A84C" stroke-width="2"/><rect x="20" y="20" width="320" height="500" rx="16" fill="none" stroke="#C9A84C" stroke-opacity="0.35"/><text x="180" y="54" text-anchor="middle" fill="#F5E8CC" font-size="17" letter-spacing="4">MISSION CHAIN</text><text x="180" y="76" text-anchor="middle" fill="#C7A6D8" font-size="10" letter-spacing="5">COMMUNITY NFT</text><circle cx="180" cy="188" r="92" fill="url(#halo)"/><circle cx="180" cy="188" r="60" fill="#140A22" stroke="#D9BE7A" stroke-width="2.5"/><g transform="translate(180,188)" fill="none" stroke="#D9BE7A" stroke-width="3" stroke-linecap="round" stroke-linejoin="round"><polyline points="-25,13 0,-2 25,13"/><polyline points="-25,0 0,-15 25,0"/><polyline points="-17,-15 0,-29 17,-15"/></g><text x="180" y="302" text-anchor="middle" fill="#F5E8CC" font-size="32" letter-spacing="2">MAKER</text><rect x="105" y="318" width="150" height="30" rx="15" fill="#000000" fill-opacity="0.3" stroke="#C9A84C" stroke-opacity="0.6"/><text x="180" y="338" text-anchor="middle" fill="#D9BE7A" font-size="15" font-family="monospace" letter-spacing="2">No. 0002</text><text x="180" y="368" text-anchor="middle" fill="#C7A6D8" font-size="9.5" font-family="monospace" letter-spacing="1">TIME CREATED 200726 - 205731</text><line x1="70" y1="388" x2="290" y2="388" stroke="#C9A84C" stroke-opacity="0.35"/><text x="125" y="436" text-anchor="middle" fill="#F5E8CC" font-size="21">90d</text><text x="125" y="455" text-anchor="middle" fill="#C7A6D8" font-size="9.5" letter-spacing="1">DURATION</text><text x="235" y="436" text-anchor="middle" fill="#F5E8CC" font-size="21">x2.5</text><text x="235" y="455" text-anchor="middle" fill="#C7A6D8" font-size="9.5" letter-spacing="1">BOOST</text><text x="180" y="502" text-anchor="middle" fill="#C7A6D8" font-size="9.5" font-style="italic">Born of Faith. Built for People.</text></svg>